<svg viewBox="0 0 196.167 124.833" xmlns="http://www.w3.org/2000/svg" xmlns:xlink="http://www.w3.org/1999/xlink" width="196.166748" height="124.833313" fill="none" customFrame="#000000">
	<path id="icon/social/people_24px" d="M89.0775 26.75C89.0775 41.5517 77.2183 53.5 62.4166 53.5C47.615 53.5 35.6666 41.5517 35.6666 26.75C35.6666 11.9483 47.615 0 62.4166 0C77.2183 0 89.0775 11.9483 89.0775 26.75ZM160.411 26.75C160.411 41.5517 148.552 53.5 133.75 53.5C118.948 53.5 107 41.5517 107 26.75C107 11.9483 118.948 0 133.75 0C148.552 0 160.411 11.9483 160.411 26.75ZM62.4167 71.3333C41.6408 71.3333 0 81.7658 0 102.542L0 115.917C0 120.821 4.0125 124.833 8.91667 124.833L115.917 124.833C120.821 124.833 124.833 120.821 124.833 115.917L124.833 102.542C124.833 81.7658 83.1925 71.3333 62.4167 71.3333ZM125.101 71.7792C128.222 71.5117 131.164 71.3333 133.75 71.3333C154.526 71.3333 196.167 81.7658 196.167 102.542L196.167 115.917C196.167 120.821 192.154 124.833 187.25 124.833L141.062 124.833C142.043 122.069 142.667 119.038 142.667 115.917L142.667 102.542C142.667 89.4342 135.623 79.5367 125.458 72.1358C125.368 72.0467 125.279 71.8683 125.101 71.7792Z" fill="rgb(0,0,0)" fill-opacity="0.541176498" fill-rule="evenodd" />
</svg>
