<svg viewBox="0 0 143.961 148" xmlns="http://www.w3.org/2000/svg" xmlns:xlink="http://www.w3.org/1999/xlink" width="143.960815" height="147.999817" fill="none" customFrame="#000000">
	<path id="矢量 286" d="M127.018 81.2457C127.326 78.9332 127.48 76.5436 127.48 73.9998C127.48 71.5332 127.326 69.0665 126.941 66.754L142.589 54.575C143.976 53.4958 144.362 51.4146 143.514 49.8729L128.714 24.2813C127.789 22.5854 125.862 22.0458 124.166 22.5854L105.743 29.9854C101.889 27.0563 97.8033 24.5896 93.2554 22.7396L90.4804 3.16042C90.1721 1.31042 88.6304 0 86.7804 0L57.1804 0C55.3304 0 53.8658 1.31042 53.5575 3.16042L50.7825 22.7396C46.2346 24.5896 42.0721 27.1333 38.295 29.9854L19.8721 22.5854C18.1763 21.9688 16.2492 22.5854 15.3242 24.2813L0.601252 49.8729C-0.323749 51.4917 -0.0154136 53.4958 1.52625 54.575L17.1742 66.754C16.7888 69.0665 16.4804 71.6103 16.4804 73.9998C16.4804 76.3894 16.6346 78.9332 17.02 81.2457L1.37208 93.4249C-0.0154138 94.504 -0.400832 96.5853 0.447086 98.1269L15.2471 123.719C16.1721 125.414 18.0992 125.954 19.795 125.414L38.2179 118.014C42.0721 120.944 46.1575 123.41 50.7054 125.26L53.4804 144.839C53.8658 146.689 55.3304 148 57.1804 148L86.7804 148C88.6304 148 90.1721 146.689 90.4033 144.839L93.1783 125.26C97.7262 123.41 101.889 120.944 105.666 118.014L124.089 125.414C125.785 126.031 127.712 125.414 128.637 123.719L143.437 98.1269C144.362 96.4311 143.976 94.504 142.512 93.4249L127.018 81.2457ZM71.9804 101.75C56.7179 101.75 44.2304 89.2623 44.2304 73.9998C44.2304 58.7374 56.7179 46.25 71.9804 46.25C87.2429 46.25 99.7304 58.7374 99.7304 73.9998C99.7304 89.2623 87.2429 101.75 71.9804 101.75Z" fill="rgb(68,68,68)" fill-rule="evenodd" />
</svg>
