<?xml version="1.0" encoding="UTF-8"?>
<svg id="_Слой_2" data-name="Слой 2" xmlns="http://www.w3.org/2000/svg" viewBox="0 0 94.67 52.08">
  <defs>
    <style>
      .cls-1 {
        fill: none;
        stroke: #51a1d9;
      }

      .cls-1, .cls-2, .cls-3 {
        stroke-miterlimit: 10;
      }

      .cls-2 {
        stroke: #1d1d1b;
      }

      .cls-2, .cls-3 {
        fill: #fff;
      }

      .cls-3 {
        stroke: #d01317;
      }
    </style>
  </defs>
  <g id="_Слой_1-2" data-name="Слой 1">
    <g>
      <g>
        <line class="cls-2" x1="10.32" y1="50.95" x2="50.27" y2=".31"/>
        <line class="cls-2" x1="33.39" y1="51.77" x2="73.35" y2="1.12"/>
        <line class="cls-2" x1="13.08" y1="16.52" x2="83.65" y2="19"/>
        <line class="cls-2" x1=".02" y1="33.08" x2="70.58" y2="35.56"/>
      </g>
      <g>
        <line class="cls-3" x1="27.64" y1=".44" x2="35.72" y2="14.44"/>
        <line class="cls-3" x1="17.11" y1="13.79" x2="46.25" y2="1.09"/>
      </g>
      <g>
        <line class="cls-3" x1="37.8" y1="19.03" x2="45.87" y2="33.04"/>
        <line class="cls-3" x1="27.26" y1="32.39" x2="56.4" y2="19.69"/>
      </g>
      <g>
        <line class="cls-3" x1="75.87" y1="2.29" x2="83.94" y2="16.3"/>
        <line class="cls-3" x1="65.34" y1="15.64" x2="94.47" y2="2.95"/>
      </g>
      <path class="cls-1" d="M46.19,8.11c2.98-3.77,9.65-6.68,14.91-6.5s7.11,3.39,4.13,7.17-9.65,6.68-14.91,6.5-7.11-3.39-4.13-7.17Z"/>
      <path class="cls-1" d="M43.19,43.43c2.98-3.77,9.65-6.68,14.91-6.5s7.11,3.39,4.13,7.17-9.65,6.68-14.91,6.5-7.11-3.39-4.13-7.17Z"/>
    </g>
  </g>
</svg>